#!OML:ASF E:\Steps\Project 1\Capture day 1\Session 2\Subject.ASF
:FULLY-SPECIFIED
:DEGREES
344
root 12.2557 18.0616 10.2727 -156.014 -4.80809 183.092
lowerback -19.8863 -4.88946 -12.2543
upperback 2.39483 -3.49245 -3.91084
thorax 14.5313 -2.56345 1.24916
lowerneck 1.41046 -2.31068 -1.52555
upperneck 20.172 -3.17623 12.6875
head 6.04852 0.0150488 4.26554
rclavicle -1.59028e-014 6.99722e-014
rhumerus -47.3028 -19.4789 -68.3733
rradius 27.1799
rwrist 2.56236
rhand -4.83952 -53.5852
rfingers 7.12502
rthumb 20.9476 277.526
lclavicle -1.59028e-014 6.99722e-014
lhumerus -21.3554 -2.16768 73.5998
lradius 33.005
lwrist 3.11214
lhand -22.2382 -11.7723
lfingers 7.12502
lthumb 4.17871 18.1665
rfemur -38.022 4.82202 23.9699
rtibia 38.3746
rfoot -22.6925 -7.21458
rtoes -31.2036
lfemur -36.2707 -11.142 -11.656
ltibia 16.3448
lfoot -5.37085 -3.66009
ltoes -26.8812
345
root 12.2404 18.0589 10.2298 -156.178 -5.04342 183.085
lowerback -19.8587 -5.18418 -12.2771
upperback 2.44577 -3.88412 -3.72893
thorax 14.6454 -2.74779 1.33262
lowerneck 1.32385 -2.03689 -1.88877
upperneck 20.1313 -2.79292 12.4625
head 6.02087 0.138125 4.26832
rclavicle -6.75868e-014 2.22639e-014
rhumerus -47.2028 -19.3918 -68.0681
rradius 26.4575
rwrist 3.13576
rhand -4.68443 -53.1866
rfingers 7.12502
rthumb 21.0966 277.941
lclavicle -6.75868e-014 2.22639e-014
lhumerus -21.2207 -1.65321 73.7777
lradius 32.8538
lwrist 2.90766
lhand -22.7007 -11.7123
lfingers 7.12502
lthumb 3.7321 18.2348
rfemur -37.8779 4.95348 24.1349
rtibia 36.9295
rfoot -23.1581 -7.25568
rtoes -31.0577
lfemur -35.9425 -11.3625 -11.7719
ltibia 16.3188
lfoot -5.50765 -3.87816
ltoes -26.0012
346
root 12.2284 18.06 10.187 -156.142 -5.00807 182.788
lowerback -20.078 -5.25478 -12.6669
upperback 2.28053 -3.88006 -3.8295
thorax 14.5971 -2.77696 1.42333
lowerneck 1.73553 -2.14022 -1.90759
upperneck 20.1874 -2.88255 12.3781
head 5.97365 0.0903322 4.24298
rclavicle -2.38542e-014 -9.54166e-015
rhumerus -48.0071 -19.6624 -67.6767
rradius 25.9725
rwrist 3.61459
rhand -4.47514 -52.3903
rfingers 7.12502
rthumb 21.2976 278.76
lclavicle -2.38542e-014 -9.54166e-015
lhumerus -21.4093 -2.05568 73.8309
lradius 32.8579
lwrist 2.7788
lhand -22.5613 -12.0223
lfingers 7.12502
lthumb 3.86679 17.9223
rfemur -37.9591 5.20485 23.859
rtibia 35.6386
rfoot -23.5202 -7.34354
rtoes -30.3886
lfemur -35.8006 -11.4838 -12.2157
ltibia 16.381
lfoot -5.61037 -4.0159
ltoes -24.8604
347
root 12.2252 18.063 10.1391 -156.254 -5.1325 182.704
lowerback -20.1779 -5.39326 -12.8851
upperback 2.38505 -3.98593 -3.80541
thorax 14.8192 -2.85188 1.51281
lowerneck 1.07842 -2.11385 -1.83943
upperneck 20.6141 -2.87182 12.1171
head 6.22097 0.114849 4.15701
rclavicle 3.18055e-014 1.27222e-013
rhumerus -48.0577 -19.8692 -67.6225
rradius 25.4707
rwrist 3.95469
rhand -4.37849 -52.3792
rfingers 7.12502
rthumb 21.3905 278.782
lclavicle 3.18055e-014 1.27222e-013
lhumerus -21.0504 -2.07445 73.8698
lradius 32.797
lwrist 2.72491
lhand -22.1104 -11.9472
lfingers 7.12502
lthumb 4.30213 17.9891
rfemur -37.8154 5.61178 23.8378
rtibia 34.3779
rfoot -23.7424 -7.71411
rtoes -30.2231
lfemur -35.5939 -11.5479 -12.3833
ltibia 16.5598
lfoot -5.76416 -4.25226
ltoes -24.5248
348
root 12.2094 18.0628 10.0965 -156.618 -5.52825 182.947
lowerback -20.1582 -5.40033 -12.5171
upperback 2.41776 -4.07606 -3.79889
thorax 14.829 -2.85906 1.28916
lowerneck 1.34917 -2.18237 -1.68796
upperneck 20.6783 -2.91362 11.9239
head 6.19463 0.0969996 4.0681
rclavicle 5.96354e-014 5.40694e-014
rhumerus -48.5759 -20.0554 -67.5026
rradius 25.1221
rwrist 4.19975
rhand -4.21896 -53.0393
rfingers 7.12502
rthumb 21.5437 278.139
lclavicle 5.96354e-014 5.40694e-014
lhumerus -20.9373 -2.43289 73.9194
lradius 32.6348
lwrist 2.77859
lhand -22.1507 -12.1188
lfingers 7.12502
lthumb 4.26325 17.8183
rfemur -37.334 5.77282 24.2976
rtibia 33.1025
rfoot -23.9962 -8.03898
rtoes -30.4008
lfemur -35.2272 -11.8237 -12.2258
ltibia 16.8468
lfoot -6.02339 -4.51887
ltoes -23.9798
349
root 12.2015 18.0639 10.0526 -156.736 -5.48088 182.824
lowerback -20.4375 -5.44977 -12.6776
upperback 2.41862 -4.06035 -3.86822
thorax 15.001 -2.87034 1.27561
lowerneck 1.65615 -2.17084 -1.64812
upperneck 20.5231 -2.86467 11.8461
head 6.08689 0.103295 4.03381
rclavicle -6.36111e-015 9.22361e-014
rhumerus -48.959 -20.6037 -67.0995
rradius 24.5601
rwrist 4.91669
rhand -3.9924 -53.0875
rfingers 7.12502
rthumb 21.7613 278.116
lclavicle -6.36111e-015 9.22361e-014
lhumerus -20.7438 -2.42638 73.9446
lradius 32.3634
lwrist 2.40868
lhand -22.0783 -12.5853
lfingers 7.12502
lthumb 4.33318 17.3504
rfemur -37.2261 6.11922 24.2114
rtibia 32.1152
rfoot -24.2838 -8.4498
rtoes -30.1219
lfemur -35.008 -11.9649 -12.4559
ltibia 17.0963
lfoot -6.30614 -4.5748
ltoes -23.3224
350
root 12.1974 18.0604 10.0152 -156.62 -5.44861 182.644
lowerback -20.7888 -5.51586 -12.8928
upperback 2.30363 -4.05918 -3.95545
thorax 15.078 -2.88967 1.26919
lowerneck 2.21049 -1.88762 -1.61555
upperneck 19.9494 -2.42712 11.8224
head 5.7755 0.269086 4.02287
rclavicle -1.27222e-014 -3.81667e-014
rhumerus -49.4546 -21.1802 -66.6702
rradius 23.9792
rwrist 5.6409
rhand -3.76111 -52.8746
rfingers 7.12502
rthumb 21.9833 278.355
lclavicle -1.27222e-014 -3.81667e-014
lhumerus -20.6972 -2.59925 73.9495
lradius 32.2392
lwrist 2.15658
lhand -21.7041 -12.6473
lfingers 7.12502
lthumb 4.69447 17.2807
rfemur -37.4397 6.5072 24.0259
rtibia 31.3644
rfoot -24.4836 -8.8826
rtoes -29.1976
lfemur -35.1679 -11.8145 -12.7618
ltibia 17.5343
lfoot -6.52134 -4.92512
ltoes -22.8409
351
root 12.1906 18.0548 9.9742 -156.623 -5.47151 182.523
lowerback -20.9867 -5.56896 -13.0491
upperback 2.1865 -4.07912 -4.00527
thorax 15.0624 -2.91093 1.28072
lowerneck 2.24702 -2.13631 -1.81122
upperneck 20.2095 -2.78809 12.0699
head 5.88169 0.121895 4.13167
rclavicle 5.56597e-015 0
rhumerus -49.922 -21.4418 -66.4292
rradius 23.5343
rwrist 6.07584
rhand -3.43199 -52.8977
rfingers 7.12502
rthumb 22.2993 278.369
lclavicle 5.56597e-015 0
lhumerus -20.7763 -2.8955 74.035
lradius 32.2654
lwrist 2.35661
lhand -21.7906 -12.1724
lfingers 7.12502
lthumb 4.61096 17.7574
rfemur -37.4644 6.90415 23.8999
rtibia 30.6207
rfoot -24.5218 -9.18384
rtoes -28.3056
lfemur -35.1534 -11.8 -12.9893
ltibia 17.8804
lfoot -6.72429 -5.18108
ltoes -22.198
352
root 12.1802 18.0513 9.93181 -156.856 -5.42654 182.418
lowerback -20.863 -5.61196 -13.2036
upperback 2.10502 -4.13509 -4.01912
thorax 14.9093 -2.9452 1.34551
lowerneck 2.55937 -1.83135 -1.61214
upperneck 19.827 -2.31001 11.7863
head 5.66791 0.315587 4.01243
rclavicle -2.14687e-014 5.08889e-014
rhumerus -50.2625 -21.6476 -66.1622
rradius 23.0792
rwrist 6.54091
rhand -3.37087 -52.9283
rfingers 7.12502
rthumb 22.358 278.345
lclavicle -2.14687e-014 5.08889e-014
lhumerus -20.8561 -2.89765 74.1579
lradius 32.2605
lwrist 2.25337
lhand -21.9952 -11.6623
lfingers 7.12502
lthumb 4.41344 18.2717
rfemur -37.1977 7.18279 23.8226
rtibia 29.9563
rfoot -24.4614 -9.2096
rtoes -27.5891
lfemur -34.7925 -12.0726 -13.1699
ltibia 18.0647
lfoot -7.03579 -5.07757
ltoes -21.9556
353
root 12.172 18.0493 9.89162 -157.138 -5.43511 182.406
lowerback -20.7011 -5.57531 -13.2479
upperback 1.88248 -4.13828 -4.06725
thorax 14.5416 -2.93797 1.34772
lowerneck 2.81066 -1.95408 -1.61312
upperneck 20.1556 -2.42709 11.7546
head 5.73726 0.289456 4.00935
rclavicle 4.85035e-014 1.20861e-013
rhumerus -51.0701 -21.7939 -65.8259
rradius 22.7581
rwrist 6.80051
rhand -3.73351 -53.3803
rfingers 7.12502
rthumb 22.0098 277.852
lclavicle 4.85035e-014 1.20861e-013
lhumerus -21.2503 -3.15252 74.2429
lradius 32.2127
lwrist 2.10059
lhand -22.0056 -11.8492
lfingers 7.12502
lthumb 4.4034 18.085
rfemur -36.8547 7.26011 23.9425
rtibia 29.3732
rfoot -24.3223 -9.01645
rtoes -27.2851
lfemur -34.3756 -12.268 -13.2527
ltibia 18.1829
lfoot -7.30866 -5.10622
ltoes -21.4722
354
root 12.1638 18.0446 9.84605 -157.318 -5.48727 182.362
lowerback -20.7981 -5.59214 -13.2567
upperback 1.9479 -4.13144 -4.09488
thorax 14.6757 -2.93965 1.3078
lowerneck 2.34276 -2.00899 -1.64384
upperneck 20.4313 -2.54188 11.7519
head 5.91389 0.254984 4.01659
rclavicle 2.38542e-015 4.77083e-014
rhumerus -51.1965 -22.5174 -65.3942
rradius 22.2266
rwrist 7.58634
rhand -3.9807 -53.6051
rfingers 7.12502
rthumb 21.7725 277.599
lclavicle 2.38542e-015 4.77083e-014
lhumerus -21.0206 -3.28543 74.3219
lradius 32.1285
lwrist 2.54558
lhand -22.223 -12.2409
lfingers 7.12502
lthumb 4.19347 17.6976
rfemur -36.6036 7.28122 24.0632
rtibia 28.9507
rfoot -24.2083 -8.73473
rtoes -27.2686
lfemur -34.0252 -12.3618 -13.4156
ltibia 18.2552
lfoot -7.50037 -5.30241
ltoes -21.1139
